<mxfile host="65bd71144e">
    <diagram id="nb9jY_ig5EfS6gXjDbCB" name="my books ">
        <mxGraphModel dx="1074" dy="790" grid="1" gridSize="10" guides="1" tooltips="1" connect="1" arrows="1" fold="1" page="1" pageScale="1" pageWidth="850" pageHeight="1100" math="0" shadow="0">
            <root>
                <mxCell id="0"/>
                <mxCell id="1" parent="0"/>
                <mxCell id="2" value="user" style="shape=actor;whiteSpace=wrap;html=1;" vertex="1" parent="1">
                    <mxGeometry x="320" y="610" width="130" height="180" as="geometry"/>
                </mxCell>
                <mxCell id="3" value="books" style="ellipse;shape=cloud;whiteSpace=wrap;html=1;" vertex="1" parent="1">
                    <mxGeometry x="40" y="400" width="180" height="130" as="geometry"/>
                </mxCell>
                <mxCell id="4" value="author" style="ellipse;shape=cloud;whiteSpace=wrap;html=1;" vertex="1" parent="1">
                    <mxGeometry x="270" y="250" width="180" height="130" as="geometry"/>
                </mxCell>
                <mxCell id="5" value="publisher" style="ellipse;shape=cloud;whiteSpace=wrap;html=1;" vertex="1" parent="1">
                    <mxGeometry x="560" y="310" width="180" height="130" as="geometry"/>
                </mxCell>
            </root>
        </mxGraphModel>
    </diagram>
    <diagram id="PDKnVGcu4iRd4zMiDcdD" name="myBooksER">
        <mxGraphModel dx="1074" dy="790" grid="1" gridSize="10" guides="1" tooltips="1" connect="1" arrows="1" fold="1" page="1" pageScale="1" pageWidth="850" pageHeight="1100" math="0" shadow="0">
            <root>
                <mxCell id="2snt5gHJGg8_k9LyfNc_-0"/>
                <mxCell id="2snt5gHJGg8_k9LyfNc_-1" parent="2snt5gHJGg8_k9LyfNc_-0"/>
                <mxCell id="2snt5gHJGg8_k9LyfNc_-32" value="" style="edgeStyle=none;html=1;endArrow=none;endFill=0;" edge="1" parent="2snt5gHJGg8_k9LyfNc_-1" source="2snt5gHJGg8_k9LyfNc_-2" target="2snt5gHJGg8_k9LyfNc_-29">
                    <mxGeometry relative="1" as="geometry"/>
                </mxCell>
                <mxCell id="2snt5gHJGg8_k9LyfNc_-42" style="edgeStyle=none;html=1;exitX=1;exitY=0.25;exitDx=0;exitDy=0;entryX=0.133;entryY=1;entryDx=0;entryDy=0;entryPerimeter=0;endArrow=ERmany;endFill=0;startArrow=ERone;startFill=0;" edge="1" parent="2snt5gHJGg8_k9LyfNc_-1" source="2snt5gHJGg8_k9LyfNc_-2" target="2snt5gHJGg8_k9LyfNc_-3">
                    <mxGeometry relative="1" as="geometry">
                        <Array as="points">
                            <mxPoint x="356" y="475"/>
                            <mxPoint x="356" y="350"/>
                        </Array>
                    </mxGeometry>
                </mxCell>
                <mxCell id="Oi55XGL4ZB7pJn-aQG2w-1" value="" style="edgeStyle=none;html=1;startArrow=ERmany;startFill=0;endArrow=ERone;endFill=0;" edge="1" parent="2snt5gHJGg8_k9LyfNc_-1" source="2snt5gHJGg8_k9LyfNc_-2" target="2snt5gHJGg8_k9LyfNc_-6">
                    <mxGeometry relative="1" as="geometry"/>
                </mxCell>
                <mxCell id="2snt5gHJGg8_k9LyfNc_-2" value="author" style="rounded=0;whiteSpace=wrap;html=1;" vertex="1" parent="2snt5gHJGg8_k9LyfNc_-1">
                    <mxGeometry x="140" y="460" width="120" height="60" as="geometry"/>
                </mxCell>
                <mxCell id="2snt5gHJGg8_k9LyfNc_-33" value="" style="edgeStyle=none;html=1;endArrow=none;endFill=0;" edge="1" parent="2snt5gHJGg8_k9LyfNc_-1" source="2snt5gHJGg8_k9LyfNc_-3" target="2snt5gHJGg8_k9LyfNc_-28">
                    <mxGeometry relative="1" as="geometry"/>
                </mxCell>
                <mxCell id="2snt5gHJGg8_k9LyfNc_-34" style="edgeStyle=none;html=1;exitX=0;exitY=0;exitDx=0;exitDy=0;entryX=0.958;entryY=0.82;entryDx=0;entryDy=0;entryPerimeter=0;endArrow=none;endFill=0;" edge="1" parent="2snt5gHJGg8_k9LyfNc_-1" source="2snt5gHJGg8_k9LyfNc_-3" target="2snt5gHJGg8_k9LyfNc_-19">
                    <mxGeometry relative="1" as="geometry"/>
                </mxCell>
                <mxCell id="2snt5gHJGg8_k9LyfNc_-43" style="edgeStyle=none;html=1;exitX=0.75;exitY=1;exitDx=0;exitDy=0;entryX=0;entryY=0.5;entryDx=0;entryDy=0;startArrow=ERmany;startFill=0;endArrow=ERone;endFill=0;" edge="1" parent="2snt5gHJGg8_k9LyfNc_-1" source="2snt5gHJGg8_k9LyfNc_-3" target="2snt5gHJGg8_k9LyfNc_-4">
                    <mxGeometry relative="1" as="geometry">
                        <Array as="points">
                            <mxPoint x="430" y="440"/>
                        </Array>
                    </mxGeometry>
                </mxCell>
                <mxCell id="2snt5gHJGg8_k9LyfNc_-3" value="books" style="rounded=0;whiteSpace=wrap;html=1;" vertex="1" parent="2snt5gHJGg8_k9LyfNc_-1">
                    <mxGeometry x="340" y="240" width="120" height="60" as="geometry"/>
                </mxCell>
                <mxCell id="2snt5gHJGg8_k9LyfNc_-16" style="edgeStyle=none;html=1;exitX=1;exitY=0.5;exitDx=0;exitDy=0;entryX=0;entryY=0.5;entryDx=0;entryDy=0;endArrow=none;endFill=0;" edge="1" parent="2snt5gHJGg8_k9LyfNc_-1" source="2snt5gHJGg8_k9LyfNc_-4" target="2snt5gHJGg8_k9LyfNc_-13">
                    <mxGeometry relative="1" as="geometry"/>
                </mxCell>
                <mxCell id="2snt5gHJGg8_k9LyfNc_-17" style="edgeStyle=none;html=1;exitX=0.75;exitY=1;exitDx=0;exitDy=0;entryX=0.042;entryY=0.3;entryDx=0;entryDy=0;entryPerimeter=0;endArrow=none;endFill=0;" edge="1" parent="2snt5gHJGg8_k9LyfNc_-1" source="2snt5gHJGg8_k9LyfNc_-4" target="2snt5gHJGg8_k9LyfNc_-14">
                    <mxGeometry relative="1" as="geometry"/>
                </mxCell>
                <mxCell id="2snt5gHJGg8_k9LyfNc_-18" style="edgeStyle=none;html=1;exitX=0.083;exitY=1.033;exitDx=0;exitDy=0;entryX=0.442;entryY=-0.02;entryDx=0;entryDy=0;entryPerimeter=0;endArrow=none;endFill=0;exitPerimeter=0;" edge="1" parent="2snt5gHJGg8_k9LyfNc_-1" source="2snt5gHJGg8_k9LyfNc_-4" target="2snt5gHJGg8_k9LyfNc_-15">
                    <mxGeometry relative="1" as="geometry"/>
                </mxCell>
                <mxCell id="2snt5gHJGg8_k9LyfNc_-31" style="edgeStyle=none;html=1;exitX=1;exitY=0;exitDx=0;exitDy=0;entryX=0;entryY=0.5;entryDx=0;entryDy=0;endArrow=none;endFill=0;" edge="1" parent="2snt5gHJGg8_k9LyfNc_-1" source="2snt5gHJGg8_k9LyfNc_-4" target="2snt5gHJGg8_k9LyfNc_-30">
                    <mxGeometry relative="1" as="geometry"/>
                </mxCell>
                <mxCell id="2snt5gHJGg8_k9LyfNc_-4" value="publisher" style="rounded=0;whiteSpace=wrap;html=1;" vertex="1" parent="2snt5gHJGg8_k9LyfNc_-1">
                    <mxGeometry x="510" y="410" width="120" height="60" as="geometry"/>
                </mxCell>
                <mxCell id="2snt5gHJGg8_k9LyfNc_-10" style="edgeStyle=none;html=1;entryX=0.367;entryY=1.033;entryDx=0;entryDy=0;entryPerimeter=0;endArrow=none;endFill=0;" edge="1" parent="2snt5gHJGg8_k9LyfNc_-1" source="2snt5gHJGg8_k9LyfNc_-5" target="2snt5gHJGg8_k9LyfNc_-2">
                    <mxGeometry relative="1" as="geometry"/>
                </mxCell>
                <mxCell id="2snt5gHJGg8_k9LyfNc_-5" value="birthdate" style="ellipse;whiteSpace=wrap;html=1;" vertex="1" parent="2snt5gHJGg8_k9LyfNc_-1">
                    <mxGeometry x="100" y="590" width="120" height="50" as="geometry"/>
                </mxCell>
                <mxCell id="2snt5gHJGg8_k9LyfNc_-11" style="edgeStyle=none;html=1;exitX=1;exitY=0;exitDx=0;exitDy=0;endArrow=none;endFill=0;" edge="1" parent="2snt5gHJGg8_k9LyfNc_-1" source="2snt5gHJGg8_k9LyfNc_-6" target="2snt5gHJGg8_k9LyfNc_-2">
                    <mxGeometry relative="1" as="geometry"/>
                </mxCell>
                <mxCell id="2snt5gHJGg8_k9LyfNc_-6" value="country" style="ellipse;whiteSpace=wrap;html=1;" vertex="1" parent="2snt5gHJGg8_k9LyfNc_-1">
                    <mxGeometry y="510" width="120" height="50" as="geometry"/>
                </mxCell>
                <mxCell id="2snt5gHJGg8_k9LyfNc_-12" style="edgeStyle=none;html=1;exitX=1;exitY=1;exitDx=0;exitDy=0;entryX=0;entryY=0;entryDx=0;entryDy=0;endArrow=none;endFill=0;" edge="1" parent="2snt5gHJGg8_k9LyfNc_-1" source="2snt5gHJGg8_k9LyfNc_-7" target="2snt5gHJGg8_k9LyfNc_-2">
                    <mxGeometry relative="1" as="geometry"/>
                </mxCell>
                <mxCell id="2snt5gHJGg8_k9LyfNc_-7" value="name" style="ellipse;whiteSpace=wrap;html=1;" vertex="1" parent="2snt5gHJGg8_k9LyfNc_-1">
                    <mxGeometry x="10" y="400" width="120" height="50" as="geometry"/>
                </mxCell>
                <mxCell id="2snt5gHJGg8_k9LyfNc_-9" style="edgeStyle=none;html=1;exitX=0;exitY=0;exitDx=0;exitDy=0;entryX=0.75;entryY=1;entryDx=0;entryDy=0;endArrow=none;endFill=0;" edge="1" parent="2snt5gHJGg8_k9LyfNc_-1" source="2snt5gHJGg8_k9LyfNc_-8" target="2snt5gHJGg8_k9LyfNc_-2">
                    <mxGeometry relative="1" as="geometry"/>
                </mxCell>
                <mxCell id="2snt5gHJGg8_k9LyfNc_-8" value="numBooks" style="ellipse;whiteSpace=wrap;html=1;" vertex="1" parent="2snt5gHJGg8_k9LyfNc_-1">
                    <mxGeometry x="260" y="580" width="120" height="50" as="geometry"/>
                </mxCell>
                <mxCell id="2snt5gHJGg8_k9LyfNc_-13" value="name" style="ellipse;whiteSpace=wrap;html=1;" vertex="1" parent="2snt5gHJGg8_k9LyfNc_-1">
                    <mxGeometry x="720" y="465" width="120" height="50" as="geometry"/>
                </mxCell>
                <mxCell id="2snt5gHJGg8_k9LyfNc_-14" value="city" style="ellipse;whiteSpace=wrap;html=1;" vertex="1" parent="2snt5gHJGg8_k9LyfNc_-1">
                    <mxGeometry x="620" y="550" width="120" height="50" as="geometry"/>
                </mxCell>
                <mxCell id="2snt5gHJGg8_k9LyfNc_-15" value="country" style="ellipse;whiteSpace=wrap;html=1;" vertex="1" parent="2snt5gHJGg8_k9LyfNc_-1">
                    <mxGeometry x="440" y="550" width="120" height="50" as="geometry"/>
                </mxCell>
                <mxCell id="2snt5gHJGg8_k9LyfNc_-19" value="title" style="ellipse;whiteSpace=wrap;html=1;" vertex="1" parent="2snt5gHJGg8_k9LyfNc_-1">
                    <mxGeometry x="130" y="170" width="120" height="50" as="geometry"/>
                </mxCell>
                <mxCell id="2snt5gHJGg8_k9LyfNc_-35" style="edgeStyle=none;html=1;exitX=1;exitY=0.5;exitDx=0;exitDy=0;endArrow=none;endFill=0;" edge="1" parent="2snt5gHJGg8_k9LyfNc_-1" source="2snt5gHJGg8_k9LyfNc_-20" target="2snt5gHJGg8_k9LyfNc_-3">
                    <mxGeometry relative="1" as="geometry"/>
                </mxCell>
                <mxCell id="2snt5gHJGg8_k9LyfNc_-20" value="genre" style="ellipse;whiteSpace=wrap;html=1;" vertex="1" parent="2snt5gHJGg8_k9LyfNc_-1">
                    <mxGeometry x="110" y="100" width="120" height="50" as="geometry"/>
                </mxCell>
                <mxCell id="2snt5gHJGg8_k9LyfNc_-36" style="edgeStyle=none;html=1;exitX=1;exitY=1;exitDx=0;exitDy=0;entryX=0.5;entryY=0;entryDx=0;entryDy=0;endArrow=none;endFill=0;" edge="1" parent="2snt5gHJGg8_k9LyfNc_-1" source="2snt5gHJGg8_k9LyfNc_-21" target="2snt5gHJGg8_k9LyfNc_-3">
                    <mxGeometry relative="1" as="geometry"/>
                </mxCell>
                <mxCell id="2snt5gHJGg8_k9LyfNc_-21" value="chapters" style="ellipse;whiteSpace=wrap;html=1;" vertex="1" parent="2snt5gHJGg8_k9LyfNc_-1">
                    <mxGeometry x="160" y="40" width="120" height="50" as="geometry"/>
                </mxCell>
                <mxCell id="2snt5gHJGg8_k9LyfNc_-37" style="edgeStyle=none;html=1;exitX=0.5;exitY=1;exitDx=0;exitDy=0;entryX=0.575;entryY=0.033;entryDx=0;entryDy=0;entryPerimeter=0;endArrow=none;endFill=0;" edge="1" parent="2snt5gHJGg8_k9LyfNc_-1" source="2snt5gHJGg8_k9LyfNc_-22" target="2snt5gHJGg8_k9LyfNc_-3">
                    <mxGeometry relative="1" as="geometry"/>
                </mxCell>
                <mxCell id="2snt5gHJGg8_k9LyfNc_-22" value="pages" style="ellipse;whiteSpace=wrap;html=1;" vertex="1" parent="2snt5gHJGg8_k9LyfNc_-1">
                    <mxGeometry x="305" y="20" width="120" height="50" as="geometry"/>
                </mxCell>
                <mxCell id="2snt5gHJGg8_k9LyfNc_-38" style="edgeStyle=none;html=1;exitX=0;exitY=1;exitDx=0;exitDy=0;entryX=0.75;entryY=0;entryDx=0;entryDy=0;endArrow=none;endFill=0;" edge="1" parent="2snt5gHJGg8_k9LyfNc_-1" source="2snt5gHJGg8_k9LyfNc_-23" target="2snt5gHJGg8_k9LyfNc_-3">
                    <mxGeometry relative="1" as="geometry"/>
                </mxCell>
                <mxCell id="2snt5gHJGg8_k9LyfNc_-23" value="date_of_publishing" style="ellipse;whiteSpace=wrap;html=1;" vertex="1" parent="2snt5gHJGg8_k9LyfNc_-1">
                    <mxGeometry x="440" y="40" width="120" height="50" as="geometry"/>
                </mxCell>
                <mxCell id="2snt5gHJGg8_k9LyfNc_-39" style="edgeStyle=none;html=1;exitX=0;exitY=0.5;exitDx=0;exitDy=0;entryX=0.95;entryY=0.033;entryDx=0;entryDy=0;entryPerimeter=0;endArrow=none;endFill=0;" edge="1" parent="2snt5gHJGg8_k9LyfNc_-1" source="2snt5gHJGg8_k9LyfNc_-24" target="2snt5gHJGg8_k9LyfNc_-3">
                    <mxGeometry relative="1" as="geometry"/>
                </mxCell>
                <mxCell id="2snt5gHJGg8_k9LyfNc_-24" value="buying_date" style="ellipse;whiteSpace=wrap;html=1;" vertex="1" parent="2snt5gHJGg8_k9LyfNc_-1">
                    <mxGeometry x="540" y="90" width="120" height="50" as="geometry"/>
                </mxCell>
                <mxCell id="2snt5gHJGg8_k9LyfNc_-40" style="edgeStyle=none;html=1;exitX=0;exitY=0.5;exitDx=0;exitDy=0;entryX=1;entryY=0.25;entryDx=0;entryDy=0;endArrow=none;endFill=0;" edge="1" parent="2snt5gHJGg8_k9LyfNc_-1" source="2snt5gHJGg8_k9LyfNc_-25" target="2snt5gHJGg8_k9LyfNc_-3">
                    <mxGeometry relative="1" as="geometry"/>
                </mxCell>
                <mxCell id="2snt5gHJGg8_k9LyfNc_-25" value="start_reading" style="ellipse;whiteSpace=wrap;html=1;" vertex="1" parent="2snt5gHJGg8_k9LyfNc_-1">
                    <mxGeometry x="600" y="160" width="120" height="50" as="geometry"/>
                </mxCell>
                <mxCell id="2snt5gHJGg8_k9LyfNc_-41" style="edgeStyle=none;html=1;exitX=0;exitY=0.5;exitDx=0;exitDy=0;entryX=1;entryY=0.75;entryDx=0;entryDy=0;endArrow=none;endFill=0;" edge="1" parent="2snt5gHJGg8_k9LyfNc_-1" source="2snt5gHJGg8_k9LyfNc_-26" target="2snt5gHJGg8_k9LyfNc_-3">
                    <mxGeometry relative="1" as="geometry"/>
                </mxCell>
                <mxCell id="2snt5gHJGg8_k9LyfNc_-26" value="end_reading" style="ellipse;whiteSpace=wrap;html=1;" vertex="1" parent="2snt5gHJGg8_k9LyfNc_-1">
                    <mxGeometry x="590" y="260" width="120" height="50" as="geometry"/>
                </mxCell>
                <mxCell id="2snt5gHJGg8_k9LyfNc_-28" value="book_id" style="ellipse;whiteSpace=wrap;html=1;" vertex="1" parent="2snt5gHJGg8_k9LyfNc_-1">
                    <mxGeometry x="170" y="240" width="120" height="50" as="geometry"/>
                </mxCell>
                <mxCell id="2snt5gHJGg8_k9LyfNc_-29" value="author_id" style="ellipse;whiteSpace=wrap;html=1;" vertex="1" parent="2snt5gHJGg8_k9LyfNc_-1">
                    <mxGeometry x="140" y="350" width="120" height="50" as="geometry"/>
                </mxCell>
                <mxCell id="2snt5gHJGg8_k9LyfNc_-30" value="publisher_id" style="ellipse;whiteSpace=wrap;html=1;" vertex="1" parent="2snt5gHJGg8_k9LyfNc_-1">
                    <mxGeometry x="690" y="360" width="120" height="50" as="geometry"/>
                </mxCell>
            </root>
        </mxGraphModel>
    </diagram>
    <diagram id="oXhUx_16ufmQvODBPYn0" name="myBooksUML">
        <mxGraphModel dx="1074" dy="790" grid="1" gridSize="10" guides="1" tooltips="1" connect="1" arrows="1" fold="1" page="1" pageScale="1" pageWidth="850" pageHeight="1100" math="0" shadow="0">
            <root>
                <mxCell id="WI5aPq2rWZ-cOTDk7PVh-0"/>
                <mxCell id="WI5aPq2rWZ-cOTDk7PVh-1" parent="WI5aPq2rWZ-cOTDk7PVh-0"/>
                <mxCell id="AcodPBk7iM8yMaDUm8e1-1" value="author" style="swimlane;fontStyle=0;childLayout=stackLayout;horizontal=1;startSize=26;fillColor=none;horizontalStack=0;resizeParent=1;resizeParentMax=0;resizeLast=0;collapsible=1;marginBottom=0;" vertex="1" parent="WI5aPq2rWZ-cOTDk7PVh-1">
                    <mxGeometry x="60" y="650" width="160" height="156" as="geometry"/>
                </mxCell>
                <mxCell id="AcodPBk7iM8yMaDUm8e1-2" value="+ author_id: int" style="text;strokeColor=none;fillColor=none;align=left;verticalAlign=top;spacingLeft=4;spacingRight=4;overflow=hidden;rotatable=0;points=[[0,0.5],[1,0.5]];portConstraint=eastwest;" vertex="1" parent="AcodPBk7iM8yMaDUm8e1-1">
                    <mxGeometry y="26" width="160" height="26" as="geometry"/>
                </mxCell>
                <mxCell id="AcodPBk7iM8yMaDUm8e1-3" value="+ author_name: string" style="text;strokeColor=none;fillColor=none;align=left;verticalAlign=top;spacingLeft=4;spacingRight=4;overflow=hidden;rotatable=0;points=[[0,0.5],[1,0.5]];portConstraint=eastwest;" vertex="1" parent="AcodPBk7iM8yMaDUm8e1-1">
                    <mxGeometry y="52" width="160" height="26" as="geometry"/>
                </mxCell>
                <mxCell id="AcodPBk7iM8yMaDUm8e1-4" value="+ author_country: string" style="text;strokeColor=none;fillColor=none;align=left;verticalAlign=top;spacingLeft=4;spacingRight=4;overflow=hidden;rotatable=0;points=[[0,0.5],[1,0.5]];portConstraint=eastwest;" vertex="1" parent="AcodPBk7iM8yMaDUm8e1-1">
                    <mxGeometry y="78" width="160" height="26" as="geometry"/>
                </mxCell>
                <mxCell id="eRUvMYa1FGGxkOBRthUW-0" value="+ author_birth_date: date" style="text;strokeColor=none;fillColor=none;align=left;verticalAlign=top;spacingLeft=4;spacingRight=4;overflow=hidden;rotatable=0;points=[[0,0.5],[1,0.5]];portConstraint=eastwest;" vertex="1" parent="AcodPBk7iM8yMaDUm8e1-1">
                    <mxGeometry y="104" width="160" height="26" as="geometry"/>
                </mxCell>
                <mxCell id="eRUvMYa1FGGxkOBRthUW-1" value="+ number_of_books: int" style="text;strokeColor=none;fillColor=none;align=left;verticalAlign=top;spacingLeft=4;spacingRight=4;overflow=hidden;rotatable=0;points=[[0,0.5],[1,0.5]];portConstraint=eastwest;" vertex="1" parent="AcodPBk7iM8yMaDUm8e1-1">
                    <mxGeometry y="130" width="160" height="26" as="geometry"/>
                </mxCell>
                <mxCell id="wVKx5CGqAzvYjSntGTg6-1" value="publisher" style="swimlane;fontStyle=0;childLayout=stackLayout;horizontal=1;startSize=26;fillColor=none;horizontalStack=0;resizeParent=1;resizeParentMax=0;resizeLast=0;collapsible=1;marginBottom=0;" vertex="1" parent="WI5aPq2rWZ-cOTDk7PVh-1">
                    <mxGeometry x="640" y="640" width="160" height="130" as="geometry"/>
                </mxCell>
                <mxCell id="wVKx5CGqAzvYjSntGTg6-2" value="+ publisher_id: int" style="text;strokeColor=none;fillColor=none;align=left;verticalAlign=top;spacingLeft=4;spacingRight=4;overflow=hidden;rotatable=0;points=[[0,0.5],[1,0.5]];portConstraint=eastwest;" vertex="1" parent="wVKx5CGqAzvYjSntGTg6-1">
                    <mxGeometry y="26" width="160" height="26" as="geometry"/>
                </mxCell>
                <mxCell id="wVKx5CGqAzvYjSntGTg6-3" value="+ publisher_name: string" style="text;strokeColor=none;fillColor=none;align=left;verticalAlign=top;spacingLeft=4;spacingRight=4;overflow=hidden;rotatable=0;points=[[0,0.5],[1,0.5]];portConstraint=eastwest;" vertex="1" parent="wVKx5CGqAzvYjSntGTg6-1">
                    <mxGeometry y="52" width="160" height="26" as="geometry"/>
                </mxCell>
                <mxCell id="wVKx5CGqAzvYjSntGTg6-5" value="+ publisher_city: date" style="text;strokeColor=none;fillColor=none;align=left;verticalAlign=top;spacingLeft=4;spacingRight=4;overflow=hidden;rotatable=0;points=[[0,0.5],[1,0.5]];portConstraint=eastwest;" vertex="1" parent="wVKx5CGqAzvYjSntGTg6-1">
                    <mxGeometry y="78" width="160" height="26" as="geometry"/>
                </mxCell>
                <mxCell id="wVKx5CGqAzvYjSntGTg6-4" value="+ publisher_country: string" style="text;strokeColor=none;fillColor=none;align=left;verticalAlign=top;spacingLeft=4;spacingRight=4;overflow=hidden;rotatable=0;points=[[0,0.5],[1,0.5]];portConstraint=eastwest;" vertex="1" parent="wVKx5CGqAzvYjSntGTg6-1">
                    <mxGeometry y="104" width="160" height="26" as="geometry"/>
                </mxCell>
                <mxCell id="otsb5yHoyYrrumx0_RkC-0" value="books" style="swimlane;fontStyle=0;childLayout=stackLayout;horizontal=1;startSize=26;fillColor=none;horizontalStack=0;resizeParent=1;resizeParentMax=0;resizeLast=0;collapsible=1;marginBottom=0;" vertex="1" parent="WI5aPq2rWZ-cOTDk7PVh-1">
                    <mxGeometry x="345" y="680" width="160" height="260" as="geometry"/>
                </mxCell>
                <mxCell id="otsb5yHoyYrrumx0_RkC-1" value="+ book_id: int" style="text;strokeColor=none;fillColor=none;align=left;verticalAlign=top;spacingLeft=4;spacingRight=4;overflow=hidden;rotatable=0;points=[[0,0.5],[1,0.5]];portConstraint=eastwest;" vertex="1" parent="otsb5yHoyYrrumx0_RkC-0">
                    <mxGeometry y="26" width="160" height="26" as="geometry"/>
                </mxCell>
                <mxCell id="otsb5yHoyYrrumx0_RkC-2" value="+ book_title: string" style="text;strokeColor=none;fillColor=none;align=left;verticalAlign=top;spacingLeft=4;spacingRight=4;overflow=hidden;rotatable=0;points=[[0,0.5],[1,0.5]];portConstraint=eastwest;" vertex="1" parent="otsb5yHoyYrrumx0_RkC-0">
                    <mxGeometry y="52" width="160" height="26" as="geometry"/>
                </mxCell>
                <mxCell id="rdy96Ia7XPWp8niGBclW-1" value="+ genre: string" style="text;strokeColor=none;fillColor=none;align=left;verticalAlign=top;spacingLeft=4;spacingRight=4;overflow=hidden;rotatable=0;points=[[0,0.5],[1,0.5]];portConstraint=eastwest;" vertex="1" parent="otsb5yHoyYrrumx0_RkC-0">
                    <mxGeometry y="78" width="160" height="26" as="geometry"/>
                </mxCell>
                <mxCell id="otsb5yHoyYrrumx0_RkC-3" value="+ chapters: int" style="text;strokeColor=none;fillColor=none;align=left;verticalAlign=top;spacingLeft=4;spacingRight=4;overflow=hidden;rotatable=0;points=[[0,0.5],[1,0.5]];portConstraint=eastwest;" vertex="1" parent="otsb5yHoyYrrumx0_RkC-0">
                    <mxGeometry y="104" width="160" height="26" as="geometry"/>
                </mxCell>
                <mxCell id="otsb5yHoyYrrumx0_RkC-4" value="+ pages: int" style="text;strokeColor=none;fillColor=none;align=left;verticalAlign=top;spacingLeft=4;spacingRight=4;overflow=hidden;rotatable=0;points=[[0,0.5],[1,0.5]];portConstraint=eastwest;" vertex="1" parent="otsb5yHoyYrrumx0_RkC-0">
                    <mxGeometry y="130" width="160" height="26" as="geometry"/>
                </mxCell>
                <mxCell id="otsb5yHoyYrrumx0_RkC-5" value="+ publication_date: date" style="text;strokeColor=none;fillColor=none;align=left;verticalAlign=top;spacingLeft=4;spacingRight=4;overflow=hidden;rotatable=0;points=[[0,0.5],[1,0.5]];portConstraint=eastwest;" vertex="1" parent="otsb5yHoyYrrumx0_RkC-0">
                    <mxGeometry y="156" width="160" height="26" as="geometry"/>
                </mxCell>
                <mxCell id="rdy96Ia7XPWp8niGBclW-2" value="+ buying_date: date" style="text;strokeColor=none;fillColor=none;align=left;verticalAlign=top;spacingLeft=4;spacingRight=4;overflow=hidden;rotatable=0;points=[[0,0.5],[1,0.5]];portConstraint=eastwest;" vertex="1" parent="otsb5yHoyYrrumx0_RkC-0">
                    <mxGeometry y="182" width="160" height="26" as="geometry"/>
                </mxCell>
                <mxCell id="rdy96Ia7XPWp8niGBclW-3" value="+ start_reading: date" style="text;strokeColor=none;fillColor=none;align=left;verticalAlign=top;spacingLeft=4;spacingRight=4;overflow=hidden;rotatable=0;points=[[0,0.5],[1,0.5]];portConstraint=eastwest;" vertex="1" parent="otsb5yHoyYrrumx0_RkC-0">
                    <mxGeometry y="208" width="160" height="26" as="geometry"/>
                </mxCell>
                <mxCell id="rdy96Ia7XPWp8niGBclW-4" value="+ end_reading: date" style="text;strokeColor=none;fillColor=none;align=left;verticalAlign=top;spacingLeft=4;spacingRight=4;overflow=hidden;rotatable=0;points=[[0,0.5],[1,0.5]];portConstraint=eastwest;" vertex="1" parent="otsb5yHoyYrrumx0_RkC-0">
                    <mxGeometry y="234" width="160" height="26" as="geometry"/>
                </mxCell>
                <mxCell id="rdy96Ia7XPWp8niGBclW-6" style="edgeStyle=none;html=1;entryX=0.013;entryY=-0.077;entryDx=0;entryDy=0;entryPerimeter=0;startArrow=ERone;startFill=0;endArrow=ERmany;endFill=0;exitX=1.006;exitY=1.192;exitDx=0;exitDy=0;exitPerimeter=0;" edge="1" parent="WI5aPq2rWZ-cOTDk7PVh-1" source="AcodPBk7iM8yMaDUm8e1-3" target="otsb5yHoyYrrumx0_RkC-5">
                    <mxGeometry relative="1" as="geometry">
                        <Array as="points">
                            <mxPoint x="230" y="733"/>
                            <mxPoint x="280" y="733"/>
                            <mxPoint x="280" y="834"/>
                        </Array>
                    </mxGeometry>
                </mxCell>
                <mxCell id="rdy96Ia7XPWp8niGBclW-7" style="edgeStyle=none;html=1;exitX=1.013;exitY=1.154;exitDx=0;exitDy=0;entryX=0;entryY=0.5;entryDx=0;entryDy=0;startArrow=ERmany;startFill=0;endArrow=ERone;endFill=0;exitPerimeter=0;" edge="1" parent="WI5aPq2rWZ-cOTDk7PVh-1" source="rdy96Ia7XPWp8niGBclW-2" target="wVKx5CGqAzvYjSntGTg6-5">
                    <mxGeometry relative="1" as="geometry">
                        <Array as="points">
                            <mxPoint x="560" y="892"/>
                            <mxPoint x="560" y="731"/>
                        </Array>
                    </mxGeometry>
                </mxCell>
            </root>
        </mxGraphModel>
    </diagram>
    <diagram id="J7qIw88jF9ajXIbtqcZ_" name="myBooksUML-normailisation">
        <mxGraphModel dx="1074" dy="790" grid="1" gridSize="10" guides="1" tooltips="1" connect="1" arrows="1" fold="1" page="1" pageScale="1" pageWidth="850" pageHeight="1100" math="0" shadow="0">
            <root>
                <mxCell id="89VQvm4WyDo6FTlKosMz-0"/>
                <mxCell id="89VQvm4WyDo6FTlKosMz-1" parent="89VQvm4WyDo6FTlKosMz-0"/>
                <mxCell id="kunEyE_LEhCfdDaFZQG8-0" value="author" style="swimlane;fontStyle=0;childLayout=stackLayout;horizontal=1;startSize=26;fillColor=none;horizontalStack=0;resizeParent=1;resizeParentMax=0;resizeLast=0;collapsible=1;marginBottom=0;" vertex="1" parent="89VQvm4WyDo6FTlKosMz-1">
                    <mxGeometry x="600" y="246" width="160" height="156" as="geometry"/>
                </mxCell>
                <mxCell id="kunEyE_LEhCfdDaFZQG8-1" value="+ author_id: int" style="text;strokeColor=none;fillColor=none;align=left;verticalAlign=top;spacingLeft=4;spacingRight=4;overflow=hidden;rotatable=0;points=[[0,0.5],[1,0.5]];portConstraint=eastwest;" vertex="1" parent="kunEyE_LEhCfdDaFZQG8-0">
                    <mxGeometry y="26" width="160" height="26" as="geometry"/>
                </mxCell>
                <mxCell id="kunEyE_LEhCfdDaFZQG8-2" value="+ author_name: string" style="text;strokeColor=none;fillColor=none;align=left;verticalAlign=top;spacingLeft=4;spacingRight=4;overflow=hidden;rotatable=0;points=[[0,0.5],[1,0.5]];portConstraint=eastwest;" vertex="1" parent="kunEyE_LEhCfdDaFZQG8-0">
                    <mxGeometry y="52" width="160" height="26" as="geometry"/>
                </mxCell>
                <mxCell id="kunEyE_LEhCfdDaFZQG8-3" value="+ author_country: string" style="text;strokeColor=none;fillColor=none;align=left;verticalAlign=top;spacingLeft=4;spacingRight=4;overflow=hidden;rotatable=0;points=[[0,0.5],[1,0.5]];portConstraint=eastwest;" vertex="1" parent="kunEyE_LEhCfdDaFZQG8-0">
                    <mxGeometry y="78" width="160" height="26" as="geometry"/>
                </mxCell>
                <mxCell id="kunEyE_LEhCfdDaFZQG8-4" value="+ author_birth_date: date" style="text;strokeColor=none;fillColor=none;align=left;verticalAlign=top;spacingLeft=4;spacingRight=4;overflow=hidden;rotatable=0;points=[[0,0.5],[1,0.5]];portConstraint=eastwest;" vertex="1" parent="kunEyE_LEhCfdDaFZQG8-0">
                    <mxGeometry y="104" width="160" height="26" as="geometry"/>
                </mxCell>
                <mxCell id="kunEyE_LEhCfdDaFZQG8-5" value="+ number_of_books: int" style="text;strokeColor=none;fillColor=none;align=left;verticalAlign=top;spacingLeft=4;spacingRight=4;overflow=hidden;rotatable=0;points=[[0,0.5],[1,0.5]];portConstraint=eastwest;" vertex="1" parent="kunEyE_LEhCfdDaFZQG8-0">
                    <mxGeometry y="130" width="160" height="26" as="geometry"/>
                </mxCell>
                <mxCell id="kunEyE_LEhCfdDaFZQG8-6" value="publisher" style="swimlane;fontStyle=0;childLayout=stackLayout;horizontal=1;startSize=26;fillColor=none;horizontalStack=0;resizeParent=1;resizeParentMax=0;resizeLast=0;collapsible=1;marginBottom=0;" vertex="1" parent="89VQvm4WyDo6FTlKosMz-1">
                    <mxGeometry x="345" y="286" width="160" height="130" as="geometry"/>
                </mxCell>
                <mxCell id="kunEyE_LEhCfdDaFZQG8-7" value="+ publisher_id: int" style="text;strokeColor=none;fillColor=none;align=left;verticalAlign=top;spacingLeft=4;spacingRight=4;overflow=hidden;rotatable=0;points=[[0,0.5],[1,0.5]];portConstraint=eastwest;" vertex="1" parent="kunEyE_LEhCfdDaFZQG8-6">
                    <mxGeometry y="26" width="160" height="26" as="geometry"/>
                </mxCell>
                <mxCell id="kunEyE_LEhCfdDaFZQG8-8" value="+ publisher_name: string" style="text;strokeColor=none;fillColor=none;align=left;verticalAlign=top;spacingLeft=4;spacingRight=4;overflow=hidden;rotatable=0;points=[[0,0.5],[1,0.5]];portConstraint=eastwest;" vertex="1" parent="kunEyE_LEhCfdDaFZQG8-6">
                    <mxGeometry y="52" width="160" height="26" as="geometry"/>
                </mxCell>
                <mxCell id="kunEyE_LEhCfdDaFZQG8-9" value="+ publisher_city: date" style="text;strokeColor=none;fillColor=none;align=left;verticalAlign=top;spacingLeft=4;spacingRight=4;overflow=hidden;rotatable=0;points=[[0,0.5],[1,0.5]];portConstraint=eastwest;" vertex="1" parent="kunEyE_LEhCfdDaFZQG8-6">
                    <mxGeometry y="78" width="160" height="26" as="geometry"/>
                </mxCell>
                <mxCell id="kunEyE_LEhCfdDaFZQG8-10" value="+ publisher_country: string" style="text;strokeColor=none;fillColor=none;align=left;verticalAlign=top;spacingLeft=4;spacingRight=4;overflow=hidden;rotatable=0;points=[[0,0.5],[1,0.5]];portConstraint=eastwest;" vertex="1" parent="kunEyE_LEhCfdDaFZQG8-6">
                    <mxGeometry y="104" width="160" height="26" as="geometry"/>
                </mxCell>
                <mxCell id="kunEyE_LEhCfdDaFZQG8-11" value="books" style="swimlane;fontStyle=0;childLayout=stackLayout;horizontal=1;startSize=26;fillColor=none;horizontalStack=0;resizeParent=1;resizeParentMax=0;resizeLast=0;collapsible=1;marginBottom=0;" vertex="1" parent="89VQvm4WyDo6FTlKosMz-1">
                    <mxGeometry x="345" y="20" width="160" height="182" as="geometry"/>
                </mxCell>
                <mxCell id="kunEyE_LEhCfdDaFZQG8-12" value="+ book_id: int" style="text;strokeColor=none;fillColor=none;align=left;verticalAlign=top;spacingLeft=4;spacingRight=4;overflow=hidden;rotatable=0;points=[[0,0.5],[1,0.5]];portConstraint=eastwest;" vertex="1" parent="kunEyE_LEhCfdDaFZQG8-11">
                    <mxGeometry y="26" width="160" height="26" as="geometry"/>
                </mxCell>
                <mxCell id="kunEyE_LEhCfdDaFZQG8-13" value="+ book_title: string" style="text;strokeColor=none;fillColor=none;align=left;verticalAlign=top;spacingLeft=4;spacingRight=4;overflow=hidden;rotatable=0;points=[[0,0.5],[1,0.5]];portConstraint=eastwest;" vertex="1" parent="kunEyE_LEhCfdDaFZQG8-11">
                    <mxGeometry y="52" width="160" height="26" as="geometry"/>
                </mxCell>
                <mxCell id="kunEyE_LEhCfdDaFZQG8-14" value="+ genre: string" style="text;strokeColor=none;fillColor=none;align=left;verticalAlign=top;spacingLeft=4;spacingRight=4;overflow=hidden;rotatable=0;points=[[0,0.5],[1,0.5]];portConstraint=eastwest;" vertex="1" parent="kunEyE_LEhCfdDaFZQG8-11">
                    <mxGeometry y="78" width="160" height="26" as="geometry"/>
                </mxCell>
                <mxCell id="kunEyE_LEhCfdDaFZQG8-15" value="+ chapters: int" style="text;strokeColor=none;fillColor=none;align=left;verticalAlign=top;spacingLeft=4;spacingRight=4;overflow=hidden;rotatable=0;points=[[0,0.5],[1,0.5]];portConstraint=eastwest;" vertex="1" parent="kunEyE_LEhCfdDaFZQG8-11">
                    <mxGeometry y="104" width="160" height="26" as="geometry"/>
                </mxCell>
                <mxCell id="kunEyE_LEhCfdDaFZQG8-16" value="+ pages: int" style="text;strokeColor=none;fillColor=none;align=left;verticalAlign=top;spacingLeft=4;spacingRight=4;overflow=hidden;rotatable=0;points=[[0,0.5],[1,0.5]];portConstraint=eastwest;" vertex="1" parent="kunEyE_LEhCfdDaFZQG8-11">
                    <mxGeometry y="130" width="160" height="26" as="geometry"/>
                </mxCell>
                <mxCell id="kunEyE_LEhCfdDaFZQG8-20" value="+ fk_publisher_id: int" style="text;strokeColor=none;fillColor=none;align=left;verticalAlign=top;spacingLeft=4;spacingRight=4;overflow=hidden;rotatable=0;points=[[0,0.5],[1,0.5]];portConstraint=eastwest;" vertex="1" parent="kunEyE_LEhCfdDaFZQG8-11">
                    <mxGeometry y="156" width="160" height="26" as="geometry"/>
                </mxCell>
                <mxCell id="kunEyE_LEhCfdDaFZQG8-33" value="dates" style="swimlane;fontStyle=0;childLayout=stackLayout;horizontal=1;startSize=40;fillColor=none;horizontalStack=0;resizeParent=1;resizeParentMax=0;resizeLast=0;collapsible=1;marginBottom=0;" vertex="1" parent="89VQvm4WyDo6FTlKosMz-1">
                    <mxGeometry x="90" y="246" width="160" height="170" as="geometry"/>
                </mxCell>
                <mxCell id="kunEyE_LEhCfdDaFZQG8-34" value="+ date_id: int" style="text;strokeColor=none;fillColor=none;align=left;verticalAlign=top;spacingLeft=4;spacingRight=4;overflow=hidden;rotatable=0;points=[[0,0.5],[1,0.5]];portConstraint=eastwest;" vertex="1" parent="kunEyE_LEhCfdDaFZQG8-33">
                    <mxGeometry y="40" width="160" height="26" as="geometry"/>
                </mxCell>
                <mxCell id="kunEyE_LEhCfdDaFZQG8-35" value="+ publication_date: date" style="text;strokeColor=none;fillColor=none;align=left;verticalAlign=top;spacingLeft=4;spacingRight=4;overflow=hidden;rotatable=0;points=[[0,0.5],[1,0.5]];portConstraint=eastwest;" vertex="1" parent="kunEyE_LEhCfdDaFZQG8-33">
                    <mxGeometry y="66" width="160" height="26" as="geometry"/>
                </mxCell>
                <mxCell id="kunEyE_LEhCfdDaFZQG8-36" value="+ buying: date" style="text;strokeColor=none;fillColor=none;align=left;verticalAlign=top;spacingLeft=4;spacingRight=4;overflow=hidden;rotatable=0;points=[[0,0.5],[1,0.5]];portConstraint=eastwest;" vertex="1" parent="kunEyE_LEhCfdDaFZQG8-33">
                    <mxGeometry y="92" width="160" height="26" as="geometry"/>
                </mxCell>
                <mxCell id="kunEyE_LEhCfdDaFZQG8-37" value="+ start_reading: date" style="text;strokeColor=none;fillColor=none;align=left;verticalAlign=top;spacingLeft=4;spacingRight=4;overflow=hidden;rotatable=0;points=[[0,0.5],[1,0.5]];portConstraint=eastwest;" vertex="1" parent="kunEyE_LEhCfdDaFZQG8-33">
                    <mxGeometry y="118" width="160" height="26" as="geometry"/>
                </mxCell>
                <mxCell id="kunEyE_LEhCfdDaFZQG8-38" value="+ end_reading: date" style="text;strokeColor=none;fillColor=none;align=left;verticalAlign=top;spacingLeft=4;spacingRight=4;overflow=hidden;rotatable=0;points=[[0,0.5],[1,0.5]];portConstraint=eastwest;" vertex="1" parent="kunEyE_LEhCfdDaFZQG8-33">
                    <mxGeometry y="144" width="160" height="26" as="geometry"/>
                </mxCell>
                <mxCell id="kunEyE_LEhCfdDaFZQG8-39" value="book_dates" style="swimlane;fontStyle=0;childLayout=stackLayout;horizontal=1;startSize=26;fillColor=none;horizontalStack=0;resizeParent=1;resizeParentMax=0;resizeLast=0;collapsible=1;marginBottom=0;" vertex="1" parent="89VQvm4WyDo6FTlKosMz-1">
                    <mxGeometry x="90" y="60" width="160" height="78" as="geometry"/>
                </mxCell>
                <mxCell id="kunEyE_LEhCfdDaFZQG8-40" value="+ fk_book_id: int" style="text;strokeColor=none;fillColor=none;align=left;verticalAlign=top;spacingLeft=4;spacingRight=4;overflow=hidden;rotatable=0;points=[[0,0.5],[1,0.5]];portConstraint=eastwest;" vertex="1" parent="kunEyE_LEhCfdDaFZQG8-39">
                    <mxGeometry y="26" width="160" height="26" as="geometry"/>
                </mxCell>
                <mxCell id="kunEyE_LEhCfdDaFZQG8-41" value="+ fk_date_id: int" style="text;strokeColor=none;fillColor=none;align=left;verticalAlign=top;spacingLeft=4;spacingRight=4;overflow=hidden;rotatable=0;points=[[0,0.5],[1,0.5]];portConstraint=eastwest;" vertex="1" parent="kunEyE_LEhCfdDaFZQG8-39">
                    <mxGeometry y="52" width="160" height="26" as="geometry"/>
                </mxCell>
                <mxCell id="kunEyE_LEhCfdDaFZQG8-44" value="book_author" style="swimlane;fontStyle=0;childLayout=stackLayout;horizontal=1;startSize=26;fillColor=none;horizontalStack=0;resizeParent=1;resizeParentMax=0;resizeLast=0;collapsible=1;marginBottom=0;" vertex="1" parent="89VQvm4WyDo6FTlKosMz-1">
                    <mxGeometry x="600" y="90" width="160" height="78" as="geometry"/>
                </mxCell>
                <mxCell id="kunEyE_LEhCfdDaFZQG8-45" value="+ fk_book_id: int" style="text;strokeColor=none;fillColor=none;align=left;verticalAlign=top;spacingLeft=4;spacingRight=4;overflow=hidden;rotatable=0;points=[[0,0.5],[1,0.5]];portConstraint=eastwest;" vertex="1" parent="kunEyE_LEhCfdDaFZQG8-44">
                    <mxGeometry y="26" width="160" height="26" as="geometry"/>
                </mxCell>
                <mxCell id="kunEyE_LEhCfdDaFZQG8-46" value="+ fk_author_id: int" style="text;strokeColor=none;fillColor=none;align=left;verticalAlign=top;spacingLeft=4;spacingRight=4;overflow=hidden;rotatable=0;points=[[0,0.5],[1,0.5]];portConstraint=eastwest;" vertex="1" parent="kunEyE_LEhCfdDaFZQG8-44">
                    <mxGeometry y="52" width="160" height="26" as="geometry"/>
                </mxCell>
                <mxCell id="kunEyE_LEhCfdDaFZQG8-49" style="edgeStyle=none;html=1;exitX=0;exitY=0.5;exitDx=0;exitDy=0;entryX=0;entryY=0.5;entryDx=0;entryDy=0;startArrow=ERmany;startFill=0;endArrow=ERone;endFill=0;" edge="1" parent="89VQvm4WyDo6FTlKosMz-1" source="kunEyE_LEhCfdDaFZQG8-41" target="kunEyE_LEhCfdDaFZQG8-34">
                    <mxGeometry relative="1" as="geometry">
                        <Array as="points">
                            <mxPoint x="40" y="125"/>
                            <mxPoint x="40" y="299"/>
                        </Array>
                    </mxGeometry>
                </mxCell>
                <mxCell id="kunEyE_LEhCfdDaFZQG8-50" style="edgeStyle=none;html=1;exitX=1;exitY=0.5;exitDx=0;exitDy=0;entryX=0;entryY=0.5;entryDx=0;entryDy=0;startArrow=ERmany;startFill=0;endArrow=ERone;endFill=0;" edge="1" parent="89VQvm4WyDo6FTlKosMz-1" source="kunEyE_LEhCfdDaFZQG8-40" target="kunEyE_LEhCfdDaFZQG8-12">
                    <mxGeometry relative="1" as="geometry">
                        <Array as="points">
                            <mxPoint x="280" y="99"/>
                            <mxPoint x="280" y="59"/>
                        </Array>
                    </mxGeometry>
                </mxCell>
                <mxCell id="kunEyE_LEhCfdDaFZQG8-51" style="edgeStyle=none;html=1;exitX=1;exitY=0.5;exitDx=0;exitDy=0;entryX=0;entryY=0.5;entryDx=0;entryDy=0;startArrow=ERone;startFill=0;endArrow=ERmany;endFill=0;" edge="1" parent="89VQvm4WyDo6FTlKosMz-1" source="kunEyE_LEhCfdDaFZQG8-12" target="kunEyE_LEhCfdDaFZQG8-45">
                    <mxGeometry relative="1" as="geometry">
                        <Array as="points">
                            <mxPoint x="560" y="59"/>
                            <mxPoint x="560" y="129"/>
                        </Array>
                    </mxGeometry>
                </mxCell>
                <mxCell id="kunEyE_LEhCfdDaFZQG8-52" style="edgeStyle=none;html=1;exitX=0;exitY=0.5;exitDx=0;exitDy=0;entryX=0;entryY=0.5;entryDx=0;entryDy=0;startArrow=ERone;startFill=0;endArrow=ERmany;endFill=0;" edge="1" parent="89VQvm4WyDo6FTlKosMz-1" source="kunEyE_LEhCfdDaFZQG8-1" target="kunEyE_LEhCfdDaFZQG8-46">
                    <mxGeometry relative="1" as="geometry">
                        <Array as="points">
                            <mxPoint x="560" y="285"/>
                            <mxPoint x="560" y="155"/>
                        </Array>
                    </mxGeometry>
                </mxCell>
                <mxCell id="kunEyE_LEhCfdDaFZQG8-53" style="edgeStyle=none;html=1;exitX=0;exitY=0.5;exitDx=0;exitDy=0;entryX=0;entryY=0.5;entryDx=0;entryDy=0;startArrow=ERmany;startFill=0;endArrow=ERone;endFill=0;" edge="1" parent="89VQvm4WyDo6FTlKosMz-1" source="kunEyE_LEhCfdDaFZQG8-20" target="kunEyE_LEhCfdDaFZQG8-7">
                    <mxGeometry relative="1" as="geometry">
                        <Array as="points">
                            <mxPoint x="300" y="189"/>
                            <mxPoint x="300" y="325"/>
                        </Array>
                    </mxGeometry>
                </mxCell>
            </root>
        </mxGraphModel>
    </diagram>
</mxfile>